<?xml version="1.0" standalone="no"?>
<!DOCTYPE svg PUBLIC "-//W3C//DTD SVG 20010904//EN"
 "http://www.w3.org/TR/2001/REC-SVG-20010904/DTD/svg10.dtd">
<svg version="1.0" xmlns="http://www.w3.org/2000/svg"
 width="204.000000pt" height="192.000000pt" viewBox="0 0 204.000000 192.000000"
 preserveAspectRatio="xMidYMid meet">

<g transform="translate(0.000000,192.000000) scale(0.100000,-0.100000)"
fill="#000000" stroke="none">
<path d="M931 1910 c-204 -29 -401 -144 -465 -272 -35 -70 -36 -171 -2 -243
27 -60 119 -148 197 -189 29 -16 55 -30 57 -31 1 -1 -11 -33 -27 -71 -16 -38
-27 -71 -25 -73 3 -3 33 23 67 57 l62 61 74 -17 75 -17 21 -95 c23 -102 26
-102 46 18 l12 72 46 0 c25 0 69 3 96 6 l50 5 73 -66 c39 -37 72 -64 72 -62 0
3 -13 35 -30 72 -16 37 -30 69 -30 71 0 2 19 8 42 14 128 35 260 128 318 226
32 53 35 65 35 134 0 59 -5 85 -24 124 -55 112 -202 212 -376 256 -92 24 -269
33 -364 20z m464 -255 c0 -20 -8 -20 -334 -23 -201 -1 -339 2 -344 7 -5 5 -7
17 -4 25 6 15 44 16 344 14 330 -3 338 -3 338 -23z m0 -150 c0 -20 -8 -20
-334 -23 -201 -1 -339 2 -344 7 -5 5 -7 17 -4 25 6 15 44 16 344 14 330 -3
338 -3 338 -23z m3 -129 c2 -10 -2 -22 -10 -27 -15 -10 -638 -12 -662 -3 -16
6 -22 35 -9 47 4 4 158 6 342 5 320 -3 336 -4 339 -22z"/>
<path d="M335 1489 c-228 -244 -313 -565 -235 -886 54 -224 187 -417 379 -551
l74 -52 131 0 131 0 -82 29 c-251 87 -443 287 -529 551 -26 78 -28 98 -28 245
-1 124 3 175 17 225 27 95 98 236 157 308 l51 64 -8 60 -8 60 -50 -53z"/>
<path d="M1721 1404 c-12 -25 -21 -49 -21 -51 0 -2 13 -23 29 -46 145 -212
181 -506 95 -761 -81 -237 -278 -434 -517 -517 l-82 -29 131 0 131 0 74 52
c244 170 389 433 406 733 12 220 -54 438 -185 613 l-40 53 -21 -47z"/>
<path d="M543 915 c-101 -44 -96 -208 7 -249 50 -20 71 -20 115 -2 47 20 75
68 75 132 0 104 -97 163 -197 119z"/>
<path d="M1343 910 c-64 -39 -85 -105 -55 -174 23 -51 56 -76 109 -82 75 -10
153 60 153 135 0 107 -117 176 -207 121z"/>
<path d="M940 832 c-73 -36 -100 -123 -60 -190 59 -97 190 -92 243 9 34 64 -1
156 -69 185 -44 18 -72 18 -114 -4z"/>
<path d="M411 649 c-71 -38 -77 -43 -101 -94 -18 -37 -20 -50 -11 -82 21 -77
114 -140 241 -163 94 -17 201 0 160 25 -5 3 -14 24 -21 47 -20 76 34 163 130
206 20 9 38 18 40 19 12 8 -34 53 -64 63 -32 11 -38 9 -66 -14 -63 -53 -155
-54 -225 -1 l-30 23 -53 -29z"/>
<path d="M1234 660 c-21 -10 -48 -24 -58 -33 -19 -14 -17 -15 25 -34 104 -46
161 -132 140 -211 -7 -23 -16 -44 -21 -47 -23 -14 -6 -23 54 -29 165 -18 338
61 367 167 20 75 -49 162 -158 198 -30 9 -36 8 -64 -15 -63 -54 -154 -54 -217
-1 -28 23 -28 23 -68 5z"/>
<path d="M1107 575 c-58 -51 -151 -53 -218 -3 -23 18 -32 19 -60 9 -81 -28
-139 -99 -139 -169 0 -36 6 -49 40 -86 140 -152 499 -130 586 36 43 82 -18
181 -135 223 -24 8 -44 15 -45 15 0 0 -13 -12 -29 -25z"/>
</g>
</svg>
