<svg version="1.1" id="Layer_1" xmlns="http://www.w3.org/2000/svg" xmlns:xlink="http://www.w3.org/1999/xlink" x="0px" y="0px"
	 width="100%" viewBox="0 0 976 976" enable-background="new 0 0 976 976" xml:space="preserve">
<path fill="#FF7A00" opacity="1.000000" stroke="none" 
	d="
M595.000000,599.026001 
	C540.000244,599.029785 485.500397,599.086365 431.000977,598.949036 
	C426.045776,598.936523 422.060760,600.292480 418.095245,603.131836 
	C376.782654,632.712463 335.355194,662.132751 294.058563,691.735535 
	C287.577881,696.381165 280.915100,698.422485 273.535889,694.874695 
	C265.847565,691.178284 263.570099,684.377014 263.615479,676.231873 
	C263.747437,652.566040 263.543121,628.898010 263.751526,605.233337 
	C263.793396,600.479736 262.346161,599.108582 257.575989,598.836365 
	C227.737564,597.133789 205.089630,578.652832 198.379044,550.923523 
	C197.202362,546.061279 196.665039,541.112915 196.667068,536.080933 
	C196.700317,453.747986 196.654938,371.415039 196.709213,289.082123 
	C196.733032,252.968887 223.965271,225.746811 259.981415,225.740417 
	C381.480835,225.718826 502.980255,225.717300 624.479675,225.746246 
	C655.313538,225.753601 680.586548,246.241730 686.674072,276.207458 
	C687.563110,280.583618 687.939697,285.137024 687.943970,289.608978 
	C688.022583,371.775146 688.085022,453.941559 687.973816,536.107666 
	C687.932312,566.766724 666.847229,592.179321 636.903320,597.775513 
	C623.223328,600.332092 609.307007,598.690308 595.000000,599.026001 
M628.098145,261.222900 
	C626.766724,261.188934 625.435303,261.125336 624.103882,261.125275 
	C502.780670,261.117218 381.457428,261.114014 260.134216,261.111572 
	C259.301056,261.111542 258.467163,261.107239 257.634796,261.137695 
	C244.646805,261.612457 233.593231,271.404602 232.293671,284.347260 
	C231.481842,292.432159 231.460663,300.619415 231.474152,308.760132 
	C231.525818,339.919281 231.870331,371.078217 231.853119,402.237122 
	C231.828995,445.895294 231.501846,489.553223 231.461975,533.211426 
	C231.444504,552.340881 242.968048,563.649353 262.014984,563.688049 
	C267.347839,563.698914 272.680756,563.683167 278.013641,563.690247 
	C292.132324,563.708984 298.867310,570.228149 298.972107,584.426086 
	C299.102478,602.089905 298.957886,619.755615 298.992584,637.420349 
	C298.996643,639.489380 298.380798,641.709045 299.786377,643.636780 
	C301.708466,643.529968 302.830261,642.190063 304.148438,641.250305 
	C321.377228,628.968140 338.587555,616.660156 355.813721,604.374390 
	C372.361847,592.572205 388.985779,580.874878 405.438019,568.940735 
	C410.056152,565.590881 414.741455,563.563416 420.590729,563.592834 
	C451.254089,563.746826 481.918610,563.674927 512.582703,563.676514 
	C549.912903,563.678406 587.243286,563.734375 624.573303,563.647034 
	C640.545959,563.609619 652.658997,551.690857 652.670837,535.961975 
	C652.732727,453.468903 652.738159,370.975739 652.685181,288.482697 
	C652.676086,274.279449 643.025024,263.410583 628.098145,261.222900 
z"/>
<path fill="#FF7A00" opacity="1.000000" stroke="none" 
	d="
M571.578430,625.120300 
	C601.124634,646.037720 630.329468,666.778809 659.537537,687.515076 
	C666.957092,692.782532 674.387207,698.034973 682.277832,703.623962 
	C683.384644,699.619629 683.510498,696.242737 683.420227,692.751465 
	C682.963989,675.098206 682.566223,657.433472 683.590332,639.792114 
	C684.186340,629.525269 690.572327,623.454163 701.020630,622.975647 
	C707.507202,622.678589 714.042480,622.497253 720.510559,622.934387 
	C736.688049,624.027832 750.660217,612.009155 750.637695,592.488037 
	C750.572449,535.992615 750.621887,479.497009 750.627380,423.001495 
	C750.629761,398.836731 750.675415,374.671875 750.623291,350.507233 
	C750.593689,336.792603 744.364441,326.918182 733.020203,322.309814 
	C729.749084,320.980988 726.323303,320.460022 722.798340,320.247223 
	C712.019226,319.596466 704.829529,311.391174 705.724548,300.914551 
	C706.559814,291.138641 715.449585,284.496796 725.903503,285.328766 
	C753.016357,287.486572 771.559082,301.198914 781.666565,326.325165 
	C784.164246,332.534119 785.336365,339.088928 785.334290,345.844879 
	C785.308350,429.838287 785.366089,513.831726 785.282654,597.825073 
	C785.251160,629.601868 757.576172,657.501038 725.684692,658.239563 
	C718.348511,658.409485 718.358276,658.409546 718.359924,665.627808 
	C718.365295,689.292603 718.276611,712.957886 718.412964,736.621887 
	C718.457153,744.293640 715.902161,750.348511 709.040710,754.072632 
	C701.884888,757.956421 695.245361,756.274658 688.938843,751.771362 
	C647.178589,721.951477 605.372742,692.195374 563.675842,662.287170 
	C559.677429,659.419067 555.702698,658.147583 550.773254,658.165161 
	C509.443726,658.312866 468.113281,658.290588 426.783325,658.219604 
	C412.145935,658.194519 403.348816,644.920776 409.717865,632.545837 
	C413.411530,625.368958 419.841187,622.857422 427.564941,622.860962 
	C459.562408,622.875427 491.559906,622.866394 523.557373,622.868713 
	C535.889709,622.869629 548.222229,622.906860 560.554382,622.864929 
	C564.272827,622.852234 567.866089,623.274475 571.578430,625.120300 
z"/>
<path fill="#FF7A00" opacity="1.000000" stroke="none" 
	d="
M412.594788,414.039124 
	C409.515564,398.326904 419.041382,382.895142 433.976746,378.863159 
	C449.593567,374.647156 465.841461,383.150787 470.929016,398.202972 
	C476.048889,413.350677 468.633698,430.031952 454.161530,435.923309 
	C438.912384,442.131012 422.096191,435.938934 415.183197,421.479645 
	C414.116272,419.248108 413.495514,416.803284 412.594788,414.039124 
z"/>
<path fill="#FF7A00" opacity="1.000000" stroke="none" 
	d="
M586.116943,400.315918 
	C589.587952,416.934570 581.221375,432.122040 566.302124,436.868774 
	C551.299927,441.641937 535.564209,434.741180 529.160645,420.580719 
	C522.283508,405.373016 529.344116,386.879608 544.569641,380.221222 
	C560.110779,373.424744 578.429993,380.879150 584.843994,396.620209 
	C585.283142,397.697968 585.628662,398.813843 586.116943,400.315918 
z"/>
<path fill="#FF7A00" opacity="1.000000" stroke="none" 
	d="
M301.213257,393.426270 
	C308.923798,380.804138 321.291870,375.535950 335.088470,378.745453 
	C347.735626,381.687561 357.206482,393.047791 358.083923,406.328400 
	C358.927124,419.090302 351.179016,431.144226 338.862152,436.232239 
	C327.640503,440.867828 314.723694,437.997131 305.858002,428.897247 
	C296.866364,419.668030 295.101654,406.821686 301.213257,393.426270 
z"/>
</svg>